<?xml version="1.0" standalone="no"?>
<!DOCTYPE svg PUBLIC "-//W3C//DTD SVG 20010904//EN"
 "http://www.w3.org/TR/2001/REC-SVG-20010904/DTD/svg10.dtd">
<svg version="1.0" xmlns="http://www.w3.org/2000/svg"
 width="300.000000pt" height="81.000000pt" viewBox="0 0 300.000000 81.000000"
 preserveAspectRatio="xMidYMid meet">

<g transform="translate(0.000000,81.000000) scale(0.100000,-0.100000)"
fill="#000000" stroke="none">
<path d="M186 736 c-107 -40 -153 -162 -100 -267 17 -34 92 -101 107 -96 24 8
16 33 -19 55 -42 27 -64 74 -64 137 0 95 55 140 170 140 85 0 122 -10 118 -33
-4 -18 -13 -18 -85 -6 -97 16 -163 -23 -163 -96 0 -55 22 -93 67 -120 95 -57
113 -73 125 -113 11 -38 11 -41 -17 -65 -26 -22 -36 -24 -90 -20 -34 3 -80 15
-104 27 -24 13 -47 19 -51 14 -4 -4 -14 -29 -23 -56 -16 -46 -15 -48 6 -61 35
-23 127 -46 179 -46 160 0 244 85 224 225 -9 54 -39 99 -94 142 -48 36 -67 41
-76 18 -4 -11 9 -25 43 -45 107 -66 120 -217 24 -273 -42 -24 -117 -32 -185
-18 -65 14 -91 30 -79 49 7 11 17 11 61 -2 90 -27 173 -16 209 28 19 23 17 98
-4 134 -10 16 -49 48 -86 71 -38 24 -74 51 -79 61 -18 33 -12 78 12 94 31 22
104 20 156 -4 l43 -20 14 33 c32 76 31 86 -11 103 -54 23 -179 28 -228 10z"/>
<path d="M2487 736 c-62 -23 -104 -62 -138 -131 -80 -162 -30 -376 104 -448
64 -34 191 -31 270 5 l58 27 -3 103 -3 103 -92 3 c-73 2 -93 6 -93 17 0 11 20
15 92 17 79 3 93 6 96 21 3 15 -7 17 -113 17 l-116 0 3 -57 3 -58 93 -3 93 -3
-3 -67 c-3 -66 -3 -67 -40 -84 -51 -24 -134 -32 -185 -19 -56 15 -98 52 -131
115 -24 45 -27 62 -27 146 0 102 13 140 70 208 48 58 169 77 250 40 27 -12 29
-16 17 -36 -7 -10 -16 -9 -47 4 -88 37 -181 -2 -226 -93 -32 -65 -33 -188 -2
-248 49 -93 129 -125 234 -93 38 11 39 13 39 55 0 32 -4 43 -15 43 -9 0 -15
-9 -15 -25 0 -31 -26 -45 -84 -45 -106 0 -171 129 -132 263 31 106 113 144
207 96 47 -24 57 -19 84 41 18 39 18 41 -1 54 -56 42 -176 57 -247 32z"/>
<path d="M590 441 l0 -301 60 0 59 0 3 137 3 138 71 5 c42 3 80 12 97 22 36
25 54 86 39 136 -20 66 -40 77 -153 80 l-100 4 3 -84 c2 -66 6 -83 18 -83 11
0 16 15 18 63 l3 62 69 0 c62 0 70 -2 89 -26 26 -33 27 -75 2 -105 -17 -21
-30 -25 -108 -29 l-88 -5 -3 -138 c-2 -129 -4 -137 -22 -137 -19 0 -20 8 -20
260 l0 260 108 0 c172 -1 227 -37 227 -154 0 -106 -44 -153 -153 -165 -41 -4
-57 -10 -57 -21 0 -12 14 -15 66 -14 115 1 177 60 187 179 6 81 -21 144 -81
183 -39 26 -47 27 -189 30 l-148 4 0 -301z"/>
<path d="M1247 668 c-14 -40 -44 -123 -66 -184 -22 -62 -37 -115 -34 -118 4
-3 69 -6 145 -6 106 0 140 3 144 13 3 8 -16 69 -41 138 -25 68 -48 131 -51
139 -7 20 -23 -11 -59 -113 -21 -59 -25 -81 -16 -90 15 -15 28 -1 50 58 l18
48 22 -64 c11 -34 21 -67 21 -71 0 -4 -41 -8 -91 -8 -69 0 -90 3 -86 13 2 6
26 72 52 145 l47 132 33 0 c32 0 33 -1 70 -102 79 -217 145 -403 145 -410 0
-5 -8 -8 -19 -8 -14 0 -25 18 -46 75 l-27 75 -166 -2 -166 -3 -33 -84 c-18
-47 -33 -88 -33 -93 0 -4 29 -8 64 -8 l64 0 17 51 c9 28 15 53 11 56 -11 12
-37 -8 -47 -37 -7 -20 -18 -30 -31 -30 -21 0 -21 15 2 75 l10 25 143 0 144 0
24 -70 24 -70 62 0 c35 0 63 1 63 3 0 3 -89 253 -154 436 -31 85 -56 156 -56
158 0 1 -29 3 -64 3 l-64 0 -25 -72z"/>
<path d="M1700 440 l0 -300 60 0 60 0 0 153 c-1 110 -4 157 -14 169 -7 10 -16
15 -19 11 -4 -3 -7 -71 -7 -150 0 -136 -1 -143 -20 -143 -19 0 -20 7 -20 232
0 198 2 230 14 218 11 -13 85 -137 260 -438 l30 -52 68 0 68 0 0 300 0 300
-60 0 -60 0 0 -180 c0 -99 -3 -180 -8 -180 -4 0 -54 81 -112 180 -88 151 -108
180 -127 180 -22 0 -23 -1 -9 -27 35 -68 257 -441 275 -463 l20 -25 1 238 c0
230 1 237 20 237 19 0 20 -7 20 -260 l0 -260 -35 0 c-39 0 -34 -7 -155 200
-99 171 -181 311 -197 338 -7 12 -22 22 -33 22 -19 0 -20 -8 -20 -300z"/>
</g>
</svg>
