<?xml version="1.0" standalone="no"?>
<!DOCTYPE svg PUBLIC "-//W3C//DTD SVG 20010904//EN"
 "http://www.w3.org/TR/2001/REC-SVG-20010904/DTD/svg10.dtd">
<svg version="1.0" xmlns="http://www.w3.org/2000/svg"
 width="844.000000pt" height="647.000000pt" viewBox="0 0 844.000000 647.000000"
 preserveAspectRatio="xMidYMid meet">
<metadata>
Created by potrace 1.15, written by Peter Selinger 2001-2017
</metadata>
<g transform="translate(0.000000,647.000000) scale(0.100000,-0.100000)"
fill="#000000" stroke="none">
<path d="M3805 5640 c-256 -39 -407 -78 -610 -157 -195 -76 -428 -211 -590
-341 -164 -133 -387 -370 -467 -497 -14 -22 -49 -78 -78 -125 -61 -97 -168
-317 -211 -435 -79 -213 -118 -433 -126 -705 -8 -277 16 -469 88 -720 104
-360 293 -687 561 -965 136 -142 228 -220 390 -328 290 -196 662 -334 1013
-378 129 -16 441 -16 570 0 329 41 688 169 963 345 424 270 768 687 924 1121
37 101 61 186 55 192 -3 2 -8 -10 -12 -28 -4 -19 -10 -27 -15 -20 -4 7 -16 14
-26 15 -24 4 -21 -14 -69 511 -16 176 -53 298 -109 356 -88 92 -225 179 -281
179 -23 0 -51 15 -104 55 -40 30 -82 55 -93 55 -19 0 -19 0 0 -27 11 -16 27
-44 35 -64 20 -49 52 -69 107 -69 44 0 47 -2 70 -42 12 -24 31 -52 42 -64 10
-11 16 -28 13 -36 -8 -20 -181 -145 -257 -185 -44 -24 -74 -33 -109 -33 -57 0
-77 16 -86 72 -4 29 -36 86 -104 187 -155 232 -217 322 -235 342 -17 19 -17
20 26 32 12 3 15 22 15 90 0 48 -3 87 -8 87 -4 0 -25 -12 -47 -26 -21 -14 -47
-24 -57 -22 -24 4 -120 133 -135 180 -14 46 -5 59 66 96 54 28 129 34 271 22
l60 -5 3 31 c4 40 -27 66 -104 91 l-54 17 31 32 31 32 -43 7 c-38 6 -56 1
-129 -33 -105 -48 -123 -67 -124 -130 -1 -45 -3 -48 -41 -67 -25 -12 -69 -22
-115 -25 -70 -5 -75 -7 -74 -27 1 -41 -14 -25 -51 51 -25 53 -46 80 -73 99
-44 29 -166 97 -175 97 -4 0 -7 -12 -7 -27 0 -21 19 -46 77 -105 42 -43 74
-80 71 -84 -4 -3 -24 -8 -46 -11 -40 -5 -41 -5 -44 28 -3 30 -7 34 -42 41 -45
10 -67 24 -60 41 2 7 -13 23 -33 36 -31 20 -44 22 -91 17 -31 -4 -67 -13 -81
-21 -14 -8 -50 -26 -79 -41 -29 -15 -61 -38 -70 -51 -59 -82 -107 -140 -125
-150 -29 -16 -118 -16 -187 1 l-55 13 2 117 c1 65 4 120 7 123 2 3 46 13 97
23 86 16 96 21 131 58 38 41 38 41 21 70 -22 38 -7 77 34 93 98 38 184 88 234
135 48 47 110 84 137 84 5 0 37 -23 71 -50 92 -74 90 -73 151 -42 76 39 90 96
46 181 l-23 44 -47 -72 c-48 -71 -48 -72 -84 -65 -65 12 -74 19 -97 75 l-22
54 -66 -2 c-75 -1 -79 4 -51 60 27 53 54 76 111 92 30 9 104 39 166 68 l112
52 200 -1 c170 0 206 -3 237 -18 47 -22 91 -63 86 -78 -6 -17 69 -78 95 -78
12 0 37 9 55 20 l33 20 67 -44 c241 -162 484 -418 637 -671 150 -248 272 -608
300 -886 l7 -66 61 24 c34 13 76 30 93 37 l31 14 -9 74 c-40 346 -156 667
-348 962 -365 560 -932 934 -1585 1047 -135 23 -533 35 -640 19z m-515 -338
c0 -14 -53 -59 -95 -80 -40 -20 -183 -157 -230 -222 -14 -19 -44 -49 -66 -67
-22 -17 -49 -44 -61 -58 -12 -15 -41 -36 -65 -46 -40 -17 -47 -17 -73 -4 -16
8 -45 15 -65 15 -32 0 -36 3 -33 22 6 44 228 216 413 321 78 43 252 126 268
127 4 0 7 -4 7 -8z m496 -379 c15 -27 45 -69 66 -94 21 -26 38 -51 38 -55 -1
-24 -41 -53 -89 -63 -85 -18 -91 -16 -91 25 l0 36 -27 -22 c-67 -50 -72 -53
-88 -40 -19 16 -19 43 0 80 l15 28 46 -14 c25 -7 51 -11 56 -8 5 3 8 35 7 70
-2 50 2 68 16 84 10 11 19 20 21 20 2 0 15 -21 30 -47z m-1442 -387 c-5 -31
-1 -59 15 -100 37 -100 29 -120 -83 -195 -68 -46 -143 -118 -133 -127 2 -3 16
1 31 7 14 7 29 9 33 5 8 -7 7 -10 -70 -133 -169 -272 -168 -269 -187 -482 -5
-58 -15 -109 -21 -115 -25 -23 11 279 51 437 16 61 59 199 70 222 5 11 21 49
35 85 52 128 181 364 229 418 29 33 36 27 30 -22z m1727 -400 c33 -10 59 -12
94 -5 58 11 58 11 81 -86 9 -38 23 -77 31 -86 41 -48 228 -67 320 -34 49 17
54 18 90 2 21 -8 72 -23 114 -32 43 -9 113 -33 156 -54 114 -55 159 -120 228
-326 42 -126 58 -156 151 -280 37 -49 78 -106 90 -125 l24 -36 70 10 c38 5 72
7 75 5 22 -22 -111 -229 -212 -329 -25 -25 -66 -86 -92 -136 l-48 -90 9 -74
c18 -165 13 -183 -87 -290 -29 -30 -69 -77 -89 -105 -36 -48 -38 -52 -32 -107
l7 -56 -71 -58 c-39 -31 -78 -70 -85 -85 -15 -29 -76 -81 -135 -117 -36 -21
-195 -56 -211 -46 -5 3 -9 20 -9 38 0 21 -25 79 -70 164 -38 72 -70 136 -70
141 0 5 -18 31 -40 56 -79 92 -84 133 -32 264 28 74 30 106 8 150 -9 17 -19
59 -23 93 -6 59 -9 66 -58 113 l-52 50 -8 90 c-4 50 -8 106 -9 125 -1 32 -4
35 -31 34 -17 0 -51 -7 -77 -14 -43 -13 -49 -12 -67 4 -11 10 -23 31 -26 47
-9 38 -32 38 -115 -2 -57 -28 -162 -61 -240 -75 -19 -4 -46 11 -120 66 -103
77 -146 124 -221 239 -65 99 -71 123 -61 279 7 114 12 136 38 188 28 58 55 83
176 169 23 17 48 43 55 58 69 147 125 201 198 192 29 -4 62 3 125 25 103 38
170 58 190 59 8 1 36 -5 61 -13z m-2047 -1331 c18 -13 54 -37 82 -52 133 -75
166 -98 209 -150 25 -31 61 -88 79 -127 18 -39 44 -81 57 -92 32 -29 137 -84
159 -84 10 0 41 -16 69 -35 28 -20 62 -40 76 -45 35 -13 49 -71 29 -119 -8
-20 -26 -74 -39 -120 -21 -76 -22 -87 -9 -123 8 -23 14 -46 14 -52 0 -19 -52
-44 -106 -51 l-50 -7 -74 79 c-234 248 -394 512 -493 813 -69 209 -69 215 -3
165z m3527 -509 c-6 -39 -22 -109 -37 -156 -24 -77 -32 -90 -90 -147 -35 -35
-73 -63 -83 -63 -39 0 -42 74 -7 159 13 33 27 78 31 101 6 33 15 47 47 71 23
16 46 29 52 29 6 0 23 21 36 48 39 73 43 77 52 51 5 -12 4 -54 -1 -93z"/>
</g>
</svg>
